<?xml version="1.0" encoding="UTF-8"?>
<svg id="Camada_1" data-name="Camada 1" xmlns="http://www.w3.org/2000/svg" xmlns:xlink="http://www.w3.org/1999/xlink" viewBox="0 0 595.28 148.29">
  <defs>
    <style>
      .cls-1 {
        letter-spacing: .02em;
      }

      .cls-2 {
        letter-spacing: -.03em;
      }

      .cls-3 {
        letter-spacing: .03em;
      }

      .cls-4 {
        letter-spacing: -.07em;
      }

      .cls-5 {
        fill: #904789;
        font-family: Belgrad-Bold, Belgrad;
        font-size: 66.94px;
        font-weight: 700;
      }

      .cls-6 {
        font-family: BauhausITCbyBT-Medium, 'ITC Bauhaus BT';
        font-size: 34.58px;
        font-weight: 500;
      }

      .cls-6, .cls-7 {
        fill: #81bc48;
      }

      .cls-8 {
        letter-spacing: .04em;
      }

      .cls-9 {
        letter-spacing: -.04em;
      }

      .cls-10 {
        letter-spacing: .02em;
      }

      .cls-11 {
        fill: #41883c;
      }

      .cls-12 {
        fill: url(#Gradiente_sem_nome_14);
      }

      .cls-13 {
        letter-spacing: -.1em;
      }

      .cls-14 {
        letter-spacing: -.06em;
      }
    </style>
    <linearGradient id="Gradiente_sem_nome_14" data-name="Gradiente sem nome 14" x1="88.93" y1="-15846.12" x2="88.93" y2="-15793.23" gradientTransform="translate(0 -15750) scale(1 -1)" gradientUnits="userSpaceOnUse">
      <stop offset="0" stop-color="#fff"/>
      <stop offset="1" stop-color="#f4f4f4"/>
    </linearGradient>
  </defs>
  <path class="cls-7" d="M87.77,6.93c.22.14-3.14,6.5-9.17,15.8-3.52,5.44-7.76,11.4-17.04,23.11-1.84,2.32-4.41,5.52-6.88,10.41-1.09,2.17-2.78,5.58-3.84,10.23-.56,2.48-1.96,8.92-.19,16.61,1.57,6.79,4.82,11.11,9.05,16.73,2.33,3.1,5.94,7.9,12.02,12.58,7.97,6.14,13.14,9.79,13.14,9.79l-8.68,13.26,23.49.12-8.47-13.42s6.15-3.92,14.92-10.57c3.53-2.67,10.46-8.03,15.12-16.86,1.37-2.59,5.05-9.76,4.9-19.33-.16-10.22-4.59-17.61-8.92-24.85-3.21-5.37-2.96-3.48-14.13-19.15-4.85-6.8-7.83-10.63-9.39-13.57-3.85-7.26-5.92-10.91-5.92-10.91Z"/>
  <path class="cls-11" d="M63.91,42.88c-.65.81-1.57,1.98-2.67,3.4-1.62,2.1-2.43,3.15-3.23,4.3-.9,1.31-2.1,3.2-3.33,5.68-.88,1.63-1.95,3.91-2.88,6.75-.36,1.08-.67,2.21-.96,3.48-.56,2.48-1.96,8.92-.19,16.61,1.57,6.79,4.82,11.11,9.05,16.73,2.33,3.1,5.94,7.9,12.02,12.58,7.97,6.14,13.14,9.79,13.14,9.79l-8.68,13.26,23.49.12-8.47-13.42c6.38-3.92,11.36-7.67,14.92-10.57,4.33-3.52,7.37-6.02,10.62-10.15,3.3-4.18,5.34-8.14,6.57-10.94-2.61-4.89-6.79-11.35-12.39-18.67-9.76-12.75-19.96-18.36-31.07-24.46-9.79-5.38-15.93-4.5-15.93-4.5Z"/>
  <path class="cls-12" d="M114.08,85.77c0,3.28-2.52,5.95-5.63,5.95s-5.64-2.67-5.64-5.95c0-1.06.26-2.05.72-2.91l-9.69-6.19c-.48,1.23-1.38,2.24-2.52,2.82v8.53c1.83.32,3.22,2,3.22,4.02,0,2.25-1.73,4.08-3.86,4.08s-3.86-1.82-3.86-4.08c0-1.94,1.28-3.56,3-3.97h-.06v-8.1c-.21.03-.42.04-.63.04-1.52,0-2.9-.71-3.83-1.83l-10.71,9.08c.42.8.65,1.71.65,2.67,0,3.2-2.57,5.79-5.73,5.79s-5.73-2.59-5.73-5.79,2.56-5.78,5.73-5.78c1.65,0,3.13.7,4.17,1.82l10.79-9.15c-.28-.66-.44-1.4-.44-2.18,0-.93.22-1.8.61-2.56l-6.95-5.79c-.85.87-2.01,1.4-3.3,1.4-2.6,0-4.7-2.18-4.7-4.87s2.1-4.87,4.7-4.87,4.69,2.18,4.69,4.87c0,.78-.18,1.52-.49,2.17l6.97,5.8c.91-.95,2.17-1.53,3.55-1.53.18,0,.36,0,.54.03l1.98-10.83c-3.31-.73-5.8-3.83-5.8-7.54,0-4.26,3.27-7.71,7.3-7.71s7.31,3.46,7.31,7.71-3.24,7.67-7.24,7.71l-2.04,11.09c1.78.83,3.03,2.72,3.03,4.91,0,.13,0,.26-.01.4l10.24,6.54c1.02-1.09,2.44-1.76,4.01-1.76,3.11,0,5.63,2.66,5.63,5.95Z"/>
  <text class="cls-5" transform="translate(141.71 68.9)"><tspan class="cls-8" x="0" y="0">I</tspan><tspan class="cls-1" x="25.17" y="0">N</tspan><tspan class="cls-3" x="77.44" y="0">N</tspan><tspan class="cls-4" x="130.19" y="0">O</tspan><tspan class="cls-13" x="183.4" y="0">V</tspan><tspan class="cls-14" x="227.11" y="0">A</tspan><tspan class="cls-2" x="273.7" y="0">S</tspan><tspan class="cls-10" x="313.46" y="0">E</tspan><tspan class="cls-9" x="357.64" y="0">L</tspan><tspan x="386.42" y="0">L</tspan></text>
  <text class="cls-6" transform="translate(141.71 103.45)"><tspan x="0" y="0" xml:space="preserve">F I N E   I N G R E D I E N T S</tspan></text>
  <text class="cls-6" transform="translate(141.71 135.59)"><tspan x="0" y="0" xml:space="preserve">&amp;   A C T I V E S</tspan></text>
</svg>